<svg xmlns="http://www.w3.org/2000/svg" xmlns:xlink="http://www.w3.org/1999/xlink" contentStyleType="text/css" height="539px" preserveAspectRatio="none" style="width:1178px;height:539px;background:#FFFFFF;" version="1.1" viewBox="0 0 1178 539" width="1178px" zoomAndPan="magnify"><defs/><g><text fill="#000000" font-family="sans-serif" font-size="14" font-weight="bold" lengthAdjust="spacing" textLength="223.2754" x="476.6472" y="29.5332">Assistant Slashing &amp; Freeze Flow</text><line style="stroke:#181818;stroke-width:0.5;stroke-dasharray:5.0,5.0;" x1="31" x2="31" y1="121.2188" y2="457.7344"/><line style="stroke:#181818;stroke-width:0.5;stroke-dasharray:5.0,5.0;" x1="232.8047" x2="232.8047" y1="121.2188" y2="457.7344"/><line style="stroke:#181818;stroke-width:0.5;stroke-dasharray:5.0,5.0;" x1="502.4194" x2="502.4194" y1="121.2188" y2="457.7344"/><line style="stroke:#181818;stroke-width:0.5;stroke-dasharray:5.0,5.0;" x1="727.6924" x2="727.6924" y1="121.2188" y2="457.7344"/><line style="stroke:#181818;stroke-width:0.5;stroke-dasharray:5.0,5.0;" x1="844.7266" x2="844.7266" y1="121.2188" y2="457.7344"/><line style="stroke:#181818;stroke-width:0.5;stroke-dasharray:5.0,5.0;" x1="1116.5425" x2="1116.5425" y1="121.2188" y2="457.7344"/><text fill="#000000" font-family="sans-serif" font-size="14" lengthAdjust="spacing" textLength="46.6826" x="5" y="118.1426">Monitor</text><ellipse cx="31.3413" cy="52.1094" fill="#E2E2F0" rx="8" ry="8" style="stroke:#181818;stroke-width:0.5;"/><path d="M31.3413,60.1094 L31.3413,87.1094 M18.3413,68.1094 L44.3413,68.1094 M31.3413,87.1094 L18.3413,102.1094 M31.3413,87.1094 L44.3413,102.1094 " fill="none" style="stroke:#181818;stroke-width:0.5;"/><text fill="#000000" font-family="sans-serif" font-size="14" lengthAdjust="spacing" textLength="46.6826" x="5" y="471.2676">Monitor</text><ellipse cx="31.3413" cy="482.8438" fill="#E2E2F0" rx="8" ry="8" style="stroke:#181818;stroke-width:0.5;"/><path d="M31.3413,490.8438 L31.3413,517.8438 M18.3413,498.8438 L44.3413,498.8438 M31.3413,517.8438 L18.3413,532.8438 M31.3413,517.8438 L44.3413,532.8438 " fill="none" style="stroke:#181818;stroke-width:0.5;"/><rect fill="#E2E2F0" height="31.6094" rx="2.5" ry="2.5" style="stroke:#181818;stroke-width:0.5;" width="121.3926" x="172.8047" y="88.6094"/><text fill="#000000" font-family="sans-serif" font-size="14" lengthAdjust="spacing" textLength="107.3926" x="179.8047" y="110.1426">Incident Reporter</text><rect fill="#E2E2F0" height="31.6094" rx="2.5" ry="2.5" style="stroke:#181818;stroke-width:0.5;" width="121.3926" x="172.8047" y="456.7344"/><text fill="#000000" font-family="sans-serif" font-size="14" lengthAdjust="spacing" textLength="107.3926" x="179.8047" y="478.2676">Incident Reporter</text><rect fill="#E2E2F0" height="31.6094" rx="2.5" ry="2.5" style="stroke:#181818;stroke-width:0.5;" width="140.0752" x="432.4194" y="88.6094"/><text fill="#000000" font-family="sans-serif" font-size="14" lengthAdjust="spacing" textLength="126.0752" x="439.4194" y="110.1426">Governance Module</text><rect fill="#E2E2F0" height="31.6094" rx="2.5" ry="2.5" style="stroke:#181818;stroke-width:0.5;" width="140.0752" x="432.4194" y="456.7344"/><text fill="#000000" font-family="sans-serif" font-size="14" lengthAdjust="spacing" textLength="126.0752" x="439.4194" y="478.2676">Governance Module</text><rect fill="#E2E2F0" height="31.6094" rx="2.5" ry="2.5" style="stroke:#181818;stroke-width:0.5;" width="126.0342" x="664.6924" y="88.6094"/><text fill="#000000" font-family="sans-serif" font-size="14" lengthAdjust="spacing" textLength="112.0342" x="671.6924" y="110.1426">Assistant Registry</text><rect fill="#E2E2F0" height="31.6094" rx="2.5" ry="2.5" style="stroke:#181818;stroke-width:0.5;" width="126.0342" x="664.6924" y="456.7344"/><text fill="#000000" font-family="sans-serif" font-size="14" lengthAdjust="spacing" textLength="112.0342" x="671.6924" y="478.2676">Assistant Registry</text><rect fill="#E2E2F0" height="31.6094" rx="2.5" ry="2.5" style="stroke:#181818;stroke-width:0.5;" width="89.4688" x="800.7266" y="88.6094"/><text fill="#000000" font-family="sans-serif" font-size="14" lengthAdjust="spacing" textLength="75.4688" x="807.7266" y="110.1426">Tokenomics</text><rect fill="#E2E2F0" height="31.6094" rx="2.5" ry="2.5" style="stroke:#181818;stroke-width:0.5;" width="89.4688" x="800.7266" y="456.7344"/><text fill="#000000" font-family="sans-serif" font-size="14" lengthAdjust="spacing" textLength="75.4688" x="807.7266" y="478.2676">Tokenomics</text><rect fill="#E2E2F0" height="31.6094" rx="2.5" ry="2.5" style="stroke:#181818;stroke-width:0.5;" width="112.0273" x="1060.5425" y="88.6094"/><text fill="#000000" font-family="sans-serif" font-size="14" lengthAdjust="spacing" textLength="98.0273" x="1067.5425" y="110.1426">Reward Escrow</text><rect fill="#E2E2F0" height="31.6094" rx="2.5" ry="2.5" style="stroke:#181818;stroke-width:0.5;" width="112.0273" x="1060.5425" y="456.7344"/><text fill="#000000" font-family="sans-serif" font-size="14" lengthAdjust="spacing" textLength="98.0273" x="1067.5425" y="478.2676">Reward Escrow</text><polygon fill="#181818" points="221.501,149.5703,231.501,153.5703,221.501,157.5703,225.501,153.5703" style="stroke:#181818;stroke-width:1.0;"/><line style="stroke:#181818;stroke-width:1.0;" x1="31.3413" x2="227.501" y1="153.5703" y2="153.5703"/><text fill="#000000" font-family="sans-serif" font-size="13" lengthAdjust="spacing" textLength="178.1597" x="38.3413" y="148.7139">Upload logs + evidence bundle</text><polygon fill="#181818" points="490.457,179.9219,500.457,183.9219,490.457,187.9219,494.457,183.9219" style="stroke:#181818;stroke-width:1.0;"/><line style="stroke:#181818;stroke-width:1.0;" x1="233.501" x2="496.457" y1="183.9219" y2="183.9219"/><text fill="#000000" font-family="sans-serif" font-size="13" lengthAdjust="spacing" textLength="244.9561" x="240.501" y="179.0654">File SlashProposal(assistant_id, evidence)</text><polygon fill="#181818" points="715.7095,210.2734,725.7095,214.2734,715.7095,218.2734,719.7095,214.2734" style="stroke:#181818;stroke-width:1.0;"/><line style="stroke:#181818;stroke-width:1.0;" x1="502.457" x2="721.7095" y1="214.2734" y2="214.2734"/><text fill="#000000" font-family="sans-serif" font-size="13" lengthAdjust="spacing" textLength="177.7471" x="509.457" y="209.417">Flag assistant (freeze payouts)</text><polygon fill="#181818" points="513.457,240.625,503.457,244.625,513.457,248.625,509.457,244.625" style="stroke:#181818;stroke-width:1.0;"/><line style="stroke:#181818;stroke-width:1.0;stroke-dasharray:2.0,2.0;" x1="507.457" x2="726.7095" y1="244.625" y2="244.625"/><text fill="#000000" font-family="sans-serif" font-size="13" lengthAdjust="spacing" textLength="84.9063" x="519.457" y="239.7686">Status=Frozen</text><line style="stroke:#181818;stroke-width:1.0;" x1="502.457" x2="544.457" y1="274.9766" y2="274.9766"/><line style="stroke:#181818;stroke-width:1.0;" x1="544.457" x2="544.457" y1="274.9766" y2="287.9766"/><line style="stroke:#181818;stroke-width:1.0;" x1="503.457" x2="544.457" y1="287.9766" y2="287.9766"/><polygon fill="#181818" points="513.457,283.9766,503.457,287.9766,513.457,291.9766,509.457,287.9766" style="stroke:#181818;stroke-width:1.0;"/><text fill="#000000" font-family="sans-serif" font-size="13" lengthAdjust="spacing" textLength="117.0698" x="509.457" y="270.1201">Open voting window</text><polygon fill="#181818" points="833.4609,314.3281,843.4609,318.3281,833.4609,322.3281,837.4609,318.3281" style="stroke:#181818;stroke-width:1.0;"/><line style="stroke:#181818;stroke-width:1.0;" x1="502.457" x2="839.4609" y1="318.3281" y2="318.3281"/><text fill="#000000" font-family="sans-serif" font-size="13" lengthAdjust="spacing" textLength="190.0679" x="509.457" y="313.4717">On approval, slash bonded stake</text><polygon fill="#181818" points="1104.5562,344.6797,1114.5562,348.6797,1104.5562,352.6797,1108.5562,348.6797" style="stroke:#181818;stroke-width:1.0;"/><line style="stroke:#181818;stroke-width:1.0;" x1="845.4609" x2="1110.5562" y1="348.6797" y2="348.6797"/><text fill="#000000" font-family="sans-serif" font-size="13" lengthAdjust="spacing" textLength="247.0952" x="852.4609" y="343.8232">Deduct assistant escrow / re-route rewards</text><polygon fill="#181818" points="42.3413,375.0313,32.3413,379.0313,42.3413,383.0313,38.3413,379.0313" style="stroke:#181818;stroke-width:1.0;"/><line style="stroke:#181818;stroke-width:1.0;stroke-dasharray:2.0,2.0;" x1="36.3413" x2="844.4609" y1="379.0313" y2="379.0313"/><text fill="#000000" font-family="sans-serif" font-size="13" lengthAdjust="spacing" textLength="197.2661" x="48.3413" y="374.1748">Pay reporter bounty (if configured)</text><polygon fill="#181818" points="715.7095,405.3828,725.7095,409.3828,715.7095,413.3828,719.7095,409.3828" style="stroke:#181818;stroke-width:1.0;"/><line style="stroke:#181818;stroke-width:1.0;" x1="502.457" x2="721.7095" y1="409.3828" y2="409.3828"/><text fill="#000000" font-family="sans-serif" font-size="13" lengthAdjust="spacing" textLength="201.2524" x="509.457" y="404.5264">Update assistant status = Revoked</text><polygon fill="#181818" points="244.501,435.7344,234.501,439.7344,244.501,443.7344,240.501,439.7344" style="stroke:#181818;stroke-width:1.0;"/><line style="stroke:#181818;stroke-width:1.0;stroke-dasharray:2.0,2.0;" x1="238.501" x2="726.7095" y1="439.7344" y2="439.7344"/><text fill="#000000" font-family="sans-serif" font-size="13" lengthAdjust="spacing" textLength="196.5361" x="250.501" y="434.8779">Emit Slashed event to subscribers</text><!--SRC=[LLB1QW8n4BtdAuOUYgLAxuA5qkfIIb6qzbh6pRWDnan8iYlwzPsigtPF6NXlvhrvasII9NY9qSI4Bi7AOlmrhe9xc0MY4y7Cya4fB1C7-6Hdv5KUGpAbyRdZxjsLHfDKI_8S4eKxm0ZBwQ9FAxYXuD2L96DqRQcb5VFlFkrcPKcLLE7OZIlwl2_UaUEzAMEBVyq_-lYI3XWqJ6CP-D1IfgjNfReDOFIS7OvXxIsZ1ijLX4UW9cyY3ZUrqvQKK39JJ8vXPYIeDfv5OCyHxG0lNd-C7bwR7vJmpmA5j5ciu4g4mVQSgiSZroa-Y4G1eul6Ac6gusGM-4JkCgP5vfuSD9poQGx6QRb91ylc0Zj0xmCtQ8SGiqdOiDEaGMHtf8IKkHB16Dv8rsNwvudQZE090es2k28fSdZnt2PzNMfZME1HmFEPHQ5swGW3iuMItTPKTI3TttxjDSgycrPiDuI9NBUH2-hh_kqrfdlJVK5nJat-L8aXrXjnQ3OKele3]--></g></svg>